{"title":"Transcendence (2014) Dual Audio WEB-DL 720p mkv","uid":10487751,"size":4467007891,"categoryP":"video","categoryS":"hd___movies","magnet":"?xt=urn:btih:fd55a08b755672ee8c16e029d669adad50dd3677&amp;dn=Transcendence+%282014%29+Dual+Audio+WEB-DL+720p+mkv&amp;tr=udp%3A%2F%2Ftracker.openbittorrent.com%3A80&amp;tr=udp%3A%2F%2Fopen.demonii.com%3A1337&amp;tr=udp%3A%2F%2Ftracker.coppersurfer.tk%3A6969&amp;tr=udp%3A%2F%2Fexodus.desync.com%3A6969","seeders":29,"leechers":0,"uploader":"darkj6","files":-1,"time":1404503982,"description":" ______   _______  ______    ___   _      ___  --------|\n|      | |   _   ||    _ |  |   | | |    |   ||   |----|    \n|  _    ||  |_|  ||   | ||  |   |_| |    |   ||   |___ \n| | |   ||       ||   |_||_ |      _|    |   ||    _  |\n| |_|   ||       ||    __  ||     |_  ___|   ||   | | |\n|       ||   _   ||   |  | ||    _  ||       ||   |_| |\n|______| |__| |__||___|  |_||___| |_||_______||_______|\n &lt;a href=&quot;\nhttp://www.imdb.com/title/tt2209764/&quot; rel=&quot;nofollow&quot; target=&quot;_NEW&quot;&gt;\nhttp://www.imdb.com/title/tt2209764/&lt;/a&gt;\n\n Length : 1:59:15 \n\nSound: Copyright (monophonic) [ D. Esarev] \n\nFile Format : MKV \n\nQuality : WEB-DL 720p \n\nVideo : 4063 kb / s, 1280x530 \n\nAudio : Russian: AC3, 448 kb / s (6 ch) \n\n English: AC3, 384 kb / s (6 ch)\n\nFormat : Matroska\nFormat version : Version 4 / Version 2\nFile size : 4.16 GiB\nDuration : 1h 59mn\nOverall bit rate : 4 995 Kbps\nEncoded date : UTC 2014-07-04 10:21:25\nWriting application : mkvmerge v6.1.0 ('Old Devil') built on Mar 4 2013 09:10:42\nWriting library : libebml v1.3.0 + libmatroska v1.4.0\n\nVideo\nID : 1\nFormat : AVC\nFormat/Info : Advanced Video Codec\nFormat profile : &lt;a class=&quot;__cf_email__&quot; href=&quot;/cdn-cgi/l/email-protection&quot; data-cfemail=&quot;2e634f47406e621d001f&quot;&gt;[email&amp;#160;protected]&lt;/a&gt;&lt;script cf-hash='f9e31' type=&quot;text/javascript&quot;&gt;\n/* &lt;![CDATA[ */!function(){try{var t=&quot;currentScript&quot;in document?document.currentScript:function(){for(var t=document.getElementsByTagName(&quot;script&quot;),e=t.length;e--;)if(t[e].getAttribute(&quot;cf-hash&quot;))return t[e]}();if(t&amp;&amp;t.previousSibling){var e,r,n,i,c=t.previousSibling,a=c.getAttribute(&quot;data-cfemail&quot;);if(a){for(e=&quot;&quot;,r=parseInt(a.substr(0,2),16),n=2;a.length-n;n+=2)i=parseInt(a.substr(n,2),16)^r,e+=String.fromCharCode(i);e=document.createTextNode(e),c.parentNode.replaceChild(e,c)}}}catch(u){}}();/* ]]&gt; */&lt;/script&gt;\nFormat settings, CABAC : No\nFormat settings, ReFrames : 2 frames\nFormat settings, GOP : N=1\nCodec ID : V_MPEG4/ISO/AVC\nDuration : 1h 59mn\nBit rate : 4 063 Kbps\nWidth : 1 280 pixels\nHeight : 530 pixels\nDisplay aspect ratio : 2.40:1\nFrame rate : 23.976 fps\nColor space : YUV\nChroma subsampling : 4:2:0\nBit depth : 8 bits\nScan type : Progressive\nBits/(Pixel*Frame) : 0.250\nStream size : 3.38 GiB (81%)\nLanguage : English\nDefault : Yes\nForced : No\nColor primaries : BT.709-5, BT.1361, IEC 61966-2-4, SMPTE RP177\nTransfer characteristics : BT.709-5, BT.1361\nMatrix coefficients : BT.709-5, BT.1361, IEC 61966-2-4 709, SMPTE RP177\n\nAudio #1\nID : 2\nFormat : AC-3\nFormat/Info : Audio Coding 3\nMode extension : CM (complete main)\nFormat settings, Endianness : Big\nCodec ID : A_AC3\nDuration : 1h 59mn\nBit rate mode : Constant\nBit rate : 448 Kbps\nChannel(s) : 6 channels\nChannel positions : Front: L C R, Side: L R, LFE\nSampling rate : 48.0 KHz\nBit depth : 16 bits\nCompression mode : Lossy\nStream size : 382 MiB (9%)\nLanguage : Russian\nDefault : Yes\nForced : No\n\nAudio #2\nID : 3\nFormat : AC-3\nFormat/Info : Audio Coding 3\nMode extension : CM (complete main)\nFormat settings, Endianness : Big\nCodec ID : A_AC3\nDuration : 1h 59mn\nBit rate mode : Constant\nBit rate : 384 Kbps\nChannel(s) : 6 channels\nChannel positions : Front: L C R, Side: L R, LFE\nSampling rate : 48.0 KHz\nBit depth : 16 bits\nCompression mode : Lossy\nStream size : 328 MiB (8%)\nLanguage : English\nDefault : No\nForced : No\n\nMenu\n00:00:00.000 : en:1.\n00:11:18.000 : en:2.\n00:19:18.000 : en:3.\n00:30:56.000 : en:4.\n00:39:42.000 : en:5.\n00:50:15.000 : en:6.\n01:00:20.000 : en:7.\n01:11:01.000 : en:8.\n01:20:05.000 : en:9.\n01:29:28.000 : en:10.\n01:40:24.000 : en:11.\n01:50:45.000 : en:12.\n &lt;a href=&quot;\nhttp://i.imgur.com/KdrfQcY.png&quot; rel=&quot;nofollow&quot; target=&quot;_NEW&quot;&gt;\nhttp://i.imgur.com/KdrfQcY.png&lt;/a&gt;\n &lt;a href=&quot;\nhttp://i.imgur.com/BtW6dkW.png&quot; rel=&quot;nofollow&quot; target=&quot;_NEW&quot;&gt;\nhttp://i.imgur.com/BtW6dkW.png&lt;/a&gt;","torrent":{"xt":"urn:btih:fd55a08b755672ee8c16e029d669adad50dd3677","amp;dn":"Transcendence+%282014%29+Dual+Audio+WEB-DL+720p+mkv","amp;tr":["udp%3A%2F%2Ftracker.openbittorrent.com%3A80","udp%3A%2F%2Fopen.demonii.com%3A1337","udp%3A%2F%2Ftracker.coppersurfer.tk%3A6969","udp%3A%2F%2Fexodus.desync.com%3A6969"],"infoHash":"fd55a08b755672ee8c16e029d669adad50dd3677","infoHashBuffer":{"type":"Buffer","data":[253,85,160,139,117,86,114,238,140,22,224,41,214,105,173,173,80,221,54,119]},"announce":[],"urlList":[]}}